<svg width="415" height="79" viewBox="0 0 415 79" fill="none" xmlns="http://www.w3.org/2000/svg">
<rect width="415" height="79" rx="16" fill="#F26530"/>
<path d="M29.3388 26.92C28.6988 26.92 28.1868 26.728 27.8028 26.344C27.4188 25.96 27.2268 25.4373 27.2268 24.776C27.2268 23.3893 27.9308 22.696 29.3388 22.696C29.9788 22.696 30.4801 22.888 30.8428 23.272C31.2268 23.6347 31.4188 24.136 31.4188 24.776C31.4188 26.2053 30.7254 26.92 29.3388 26.92ZM34.2668 26.92C33.6268 26.92 33.1148 26.728 32.7308 26.344C32.3468 25.96 32.1548 25.4373 32.1548 24.776C32.1548 23.3893 32.8588 22.696 34.2668 22.696C34.9068 22.696 35.4081 22.888 35.7708 23.272C36.1548 23.6347 36.3468 24.136 36.3468 24.776C36.3468 26.2053 35.6534 26.92 34.2668 26.92ZM39.6748 41.128H42.5548V45H39.2908C37.3068 45 35.7708 44.3387 34.6828 43.016C33.7654 43.72 32.6454 44.072 31.3228 44.072C29.3601 44.072 27.7921 43.336 26.6188 41.864C25.6588 40.648 25.1788 39.1867 25.1788 37.48C25.1788 35.368 25.8614 33.6507 27.2268 32.328C28.3788 31.2187 29.7121 30.664 31.2268 30.664C32.0161 30.664 32.7414 30.8133 33.4028 31.112V30.28L37.4028 28.168V38.824C37.4028 39.656 37.5734 40.2533 37.9148 40.616C38.2774 40.9573 38.8641 41.128 39.6748 41.128ZM33.4028 35.144C32.8481 34.6747 32.2188 34.44 31.5148 34.44C30.8108 34.44 30.2348 34.728 29.7868 35.304C29.3601 35.88 29.1468 36.6373 29.1468 37.576C29.1468 38.5147 29.3601 39.2613 29.7868 39.816C30.2134 40.3707 30.8001 40.648 31.5468 40.648C32.3574 40.648 32.9868 40.3707 33.4348 39.816C33.4134 39.6453 33.4028 39.3787 33.4028 39.016V35.144ZM52.0258 41.128H54.9058V45H51.6418C50.0844 45 48.7938 44.584 47.7698 43.752C46.7458 44.584 45.4551 45 43.8978 45H40.6337V41.128H43.5138C44.3244 41.128 44.9004 40.9573 45.2418 40.616C45.5831 40.2533 45.7538 39.656 45.7538 38.824V32.904L49.7858 30.792V38.824C49.7858 39.656 49.9564 40.2533 50.2978 40.616C50.6391 40.9573 51.2151 41.128 52.0258 41.128ZM43.7378 47.912C44.3778 47.912 44.8791 48.0933 45.2418 48.456C45.6258 48.84 45.8177 49.352 45.8177 49.992C45.8177 51.4213 45.1244 52.136 43.7378 52.136C43.0978 52.136 42.5858 51.944 42.2018 51.56C41.8178 51.176 41.6258 50.6533 41.6258 49.992C41.6258 48.6053 42.3298 47.912 43.7378 47.912ZM48.6658 47.912C49.3058 47.912 49.8071 48.0933 50.1698 48.456C50.5538 48.84 50.7458 49.352 50.7458 49.992C50.7458 51.4213 50.0524 52.136 48.6658 52.136C48.0258 52.136 47.5138 51.944 47.1298 51.56C46.7458 51.176 46.5538 50.6533 46.5538 49.992C46.5538 48.6053 47.2578 47.912 48.6658 47.912ZM52.9775 45V41.128H56.3695C57.1802 41.128 57.7562 40.9573 58.0975 40.616C58.4602 40.2533 58.6415 39.656 58.6415 38.824V34.6L62.6735 32.488V38.824C62.6735 39.656 62.8442 40.2533 63.1855 40.616C63.5268 40.9573 64.1028 41.128 64.9135 41.128H67.0895C67.9002 41.128 68.4762 40.9573 68.8175 40.616C69.1588 40.2533 69.3295 39.656 69.3295 38.824V33.768L73.3615 31.624V38.824C73.3615 39.656 73.5322 40.2533 73.8735 40.616C74.2362 40.9573 74.8228 41.128 75.6335 41.128H77.8095C78.6202 41.128 79.1962 40.9573 79.5375 40.616C79.8788 40.2533 80.0495 39.656 80.0495 38.824V32.904L84.0815 30.792V38.312C84.0815 39.336 84.2842 40.0613 84.6895 40.488C85.1162 40.9147 85.8202 41.128 86.8015 41.128H89.7455V45H86.5775C84.7855 45 83.3455 44.488 82.2575 43.464C81.2975 44.4667 80.0068 44.9787 78.3855 45H75.2175C73.6388 45 72.3482 44.5307 71.3455 43.592C70.4282 44.5093 69.2122 44.9787 67.6975 45H64.5295C62.9508 45 61.6602 44.5307 60.6575 43.592C59.6548 44.5307 58.3642 45 56.7855 45H52.9775ZM99.2133 41.128H102.093V45H98.8293C97.2719 45 95.9813 44.584 94.9573 43.752C93.9333 44.584 92.6426 45 91.0853 45H87.8212V41.128H90.7013C91.5119 41.128 92.0879 40.9573 92.4293 40.616C92.7706 40.2533 92.9413 39.656 92.9413 38.824V32.904L96.9733 30.792V38.824C96.9733 39.656 97.1439 40.2533 97.4853 40.616C97.8266 40.9573 98.4026 41.128 99.2133 41.128ZM90.9253 47.912C91.5653 47.912 92.0666 48.0933 92.4293 48.456C92.8133 48.84 93.0052 49.352 93.0052 49.992C93.0052 51.4213 92.3119 52.136 90.9253 52.136C90.2853 52.136 89.7733 51.944 89.3893 51.56C89.0053 51.176 88.8133 50.6533 88.8133 49.992C88.8133 48.6053 89.5173 47.912 90.9253 47.912ZM95.8533 47.912C96.4933 47.912 96.9946 48.0933 97.3573 48.456C97.7413 48.84 97.9333 49.352 97.9333 49.992C97.9333 51.4213 97.2399 52.136 95.8533 52.136C95.2133 52.136 94.7013 51.944 94.3173 51.56C93.9333 51.176 93.7413 50.6533 93.7413 49.992C93.7413 48.6053 94.4453 47.912 95.8533 47.912ZM102.949 26.952L103.941 25.096H104.901C104.666 24.6693 104.549 24.232 104.549 23.784C104.549 23.1013 104.794 22.5147 105.285 22.024C105.797 21.5333 106.405 21.288 107.109 21.288C107.749 21.288 108.346 21.512 108.901 21.96V23.816C108.389 23.368 107.877 23.144 107.365 23.144C106.661 23.144 106.309 23.464 106.309 24.104C106.309 24.424 106.448 24.7547 106.725 25.096H109.893L108.901 26.952H102.949ZM100.165 45V41.128H103.045C103.856 41.128 104.432 40.9573 104.773 40.616C105.114 40.2533 105.285 39.656 105.285 38.824V32.904L109.317 30.792V39.016C109.317 40.9573 108.72 42.472 107.525 43.56C106.48 44.52 105.114 45 103.429 45H100.165ZM122.881 41.128H125.761V45H122.497C121.771 45 121.099 44.904 120.481 44.712C120.203 46.76 119.382 48.3813 118.017 49.576C116.779 50.6427 115.297 51.176 113.569 51.176C112.225 51.176 110.913 50.8347 109.633 50.152V46.632C110.742 47.2507 111.83 47.56 112.897 47.56C114.07 47.56 114.977 47.176 115.617 46.408C116.278 45.6613 116.609 44.616 116.609 43.272V32.904L119.233 31.528L120.609 30.792V30.824L120.641 30.792V38.824C120.641 39.656 120.811 40.2533 121.153 40.616C121.494 40.9573 122.07 41.128 122.881 41.128ZM123.852 45V41.128H125.868C126.85 41.128 127.543 40.9147 127.949 40.488C128.375 40.0613 128.589 39.336 128.589 38.312V26.504L132.589 24.36V38.344C132.589 40.4133 131.959 42.0667 130.701 43.304C129.549 44.4347 128.013 45 126.093 45H123.852ZM138.349 45V26.504L142.381 24.36V45H138.349ZM158.058 26.92C157.418 26.92 156.906 26.728 156.522 26.344C156.138 25.96 155.946 25.4373 155.946 24.776C155.946 23.3893 156.65 22.696 158.058 22.696C158.698 22.696 159.199 22.888 159.562 23.272C159.946 23.6347 160.138 24.136 160.138 24.776C160.138 26.2053 159.444 26.92 158.058 26.92ZM162.986 26.92C162.346 26.92 161.834 26.728 161.45 26.344C161.066 25.96 160.874 25.4373 160.874 24.776C160.874 23.3893 161.578 22.696 162.986 22.696C163.626 22.696 164.127 22.888 164.49 23.272C164.874 23.6347 165.066 24.136 165.066 24.776C165.066 26.2053 164.372 26.92 162.986 26.92ZM168.394 41.128H171.274V45H168.01C166.026 45 164.49 44.3387 163.402 43.016C162.484 43.72 161.364 44.072 160.042 44.072C158.079 44.072 156.511 43.336 155.338 41.864C154.378 40.648 153.898 39.1867 153.898 37.48C153.898 35.368 154.58 33.6507 155.946 32.328C157.098 31.2187 158.431 30.664 159.946 30.664C160.735 30.664 161.46 30.8133 162.122 31.112V30.28L166.122 28.168V38.824C166.122 39.656 166.292 40.2533 166.634 40.616C166.996 40.9573 167.583 41.128 168.394 41.128ZM162.122 35.144C161.567 34.6747 160.938 34.44 160.234 34.44C159.53 34.44 158.954 34.728 158.506 35.304C158.079 35.88 157.866 36.6373 157.866 37.576C157.866 38.5147 158.079 39.2613 158.506 39.816C158.932 40.3707 159.519 40.648 160.266 40.648C161.076 40.648 161.706 40.3707 162.154 39.816C162.132 39.6453 162.122 39.3787 162.122 39.016V35.144ZM190.217 41.128H192.905V45H190.185C188.499 45 187.145 44.8187 186.121 44.456C185.118 44.072 184.179 43.4107 183.305 42.472C180.638 44.1573 177.566 45 174.089 45H169.352V41.128H174.121C177.875 41.128 180.862 40.008 183.081 37.768C181.63 35.2293 179.87 33.96 177.801 33.96C176.094 33.96 174.227 34.888 172.201 36.744V33.192C173.993 31.2293 176.019 30.248 178.281 30.248C179.945 30.248 181.566 30.856 183.145 32.072C184.723 33.288 186.121 35.016 187.337 37.256V38.856C186.995 39.304 186.547 39.8053 185.993 40.36C186.846 40.872 188.254 41.128 190.217 41.128ZM201.122 27.976C200.481 27.976 199.97 27.784 199.586 27.4C199.202 27.016 199.01 26.4933 199.01 25.832C199.01 25.2133 199.202 24.712 199.586 24.328C199.97 23.944 200.481 23.752 201.122 23.752C201.762 23.752 202.263 23.944 202.626 24.328C203.01 24.6907 203.202 25.192 203.202 25.832C203.202 27.2613 202.508 27.976 201.122 27.976ZM206.242 41.128H211.298V45H203.714C202.626 45 201.772 44.9253 201.154 44.776C200.492 44.9253 199.639 45 198.594 45H190.977V41.128H196.034C195.223 39.8267 194.818 38.504 194.818 37.16C194.818 35.0267 195.447 33.3093 196.706 32.008C197.836 30.8347 199.319 30.248 201.154 30.248C203.244 30.248 204.866 31.0053 206.018 32.52C206.978 33.7573 207.458 35.304 207.458 37.16C207.458 38.504 207.052 39.8267 206.242 41.128ZM201.122 40.776C201.847 40.4347 202.434 39.912 202.882 39.208C203.351 38.4827 203.586 37.7253 203.586 36.936C203.586 36.0187 203.362 35.304 202.914 34.792C202.487 34.2587 201.9 33.992 201.154 33.992C199.532 33.992 198.722 34.9627 198.722 36.904C198.722 37.736 198.946 38.5147 199.394 39.24C199.842 39.944 200.418 40.456 201.122 40.776ZM242.344 41.128H245.224V45H241.96C240.402 45 239.112 44.584 238.088 43.752C237.064 44.584 235.773 45 234.216 45H220.392C218.834 45 217.544 44.584 216.52 43.752C215.496 44.584 214.205 45 212.648 45H209.384V41.128H212.264C213.074 41.128 213.65 40.9573 213.992 40.616C214.333 40.2533 214.504 39.656 214.504 38.824V34.6L218.536 32.488V38.824C218.536 40.1893 219.08 40.9467 220.168 41.096C221.192 37.9813 222.685 35.4533 224.648 33.512C226.824 31.336 229.32 30.248 232.136 30.248C234.653 30.248 236.669 31.1227 238.184 32.872C239.464 34.344 240.104 36.168 240.104 38.344V39.016C240.104 40.424 240.85 41.128 242.344 41.128ZM234.056 41.128C234.824 41.128 235.346 40.968 235.624 40.648C235.922 40.3067 236.072 39.688 236.072 38.792V38.344C236.072 37.064 235.709 36.0187 234.984 35.208C234.258 34.3973 233.32 33.992 232.168 33.992C230.504 33.992 228.946 34.632 227.496 35.912C226.066 37.192 224.936 38.9307 224.104 41.128H234.056ZM254.298 41.128H257.178V45H253.914C252.25 45 250.895 44.5307 249.85 43.592C248.677 44.5307 247.237 45 245.53 45H243.29V41.128H245.306C246.287 41.128 246.981 40.9147 247.386 40.488C247.813 40.0613 248.026 39.336 248.026 38.312V26.504L252.026 24.36V30.824L252.058 30.792V38.824C252.058 39.656 252.229 40.2533 252.57 40.616C252.911 40.9573 253.487 41.128 254.298 41.128ZM255.259 45V41.128H257.275C258.256 41.128 258.949 40.9147 259.355 40.488C259.781 40.0613 259.995 39.336 259.995 38.312V26.504L263.995 24.36V38.344C263.995 40.4133 263.365 42.0667 262.107 43.304C260.955 44.4347 259.419 45 257.499 45H255.259ZM279.683 26.92C279.043 26.92 278.531 26.728 278.147 26.344C277.763 25.96 277.571 25.4373 277.571 24.776C277.571 23.3893 278.275 22.696 279.683 22.696C280.323 22.696 280.824 22.888 281.187 23.272C281.571 23.6347 281.763 24.136 281.763 24.776C281.763 26.2053 281.069 26.92 279.683 26.92ZM284.611 26.92C283.971 26.92 283.459 26.728 283.075 26.344C282.691 25.96 282.499 25.4373 282.499 24.776C282.499 23.3893 283.203 22.696 284.611 22.696C285.251 22.696 285.752 22.888 286.115 23.272C286.499 23.6347 286.691 24.136 286.691 24.776C286.691 26.2053 285.997 26.92 284.611 26.92ZM290.019 41.128H292.899V45H289.635C287.651 45 286.115 44.3387 285.027 43.016C284.109 43.72 282.989 44.072 281.667 44.072C279.704 44.072 278.136 43.336 276.963 41.864C276.003 40.648 275.523 39.1867 275.523 37.48C275.523 35.368 276.205 33.6507 277.571 32.328C278.723 31.2187 280.056 30.664 281.571 30.664C282.36 30.664 283.085 30.8133 283.747 31.112V30.28L287.747 28.168V38.824C287.747 39.656 287.917 40.2533 288.259 40.616C288.621 40.9573 289.208 41.128 290.019 41.128ZM283.747 35.144C283.192 34.6747 282.563 34.44 281.859 34.44C281.155 34.44 280.579 34.728 280.131 35.304C279.704 35.88 279.491 36.6373 279.491 37.576C279.491 38.5147 279.704 39.2613 280.131 39.816C280.557 40.3707 281.144 40.648 281.891 40.648C282.701 40.648 283.331 40.3707 283.779 39.816C283.757 39.6453 283.747 39.3787 283.747 39.016V35.144ZM306.69 41.128H315.49L315.554 45H306.306C305.218 45 304.194 44.7333 303.234 44.2C302.231 44.7333 301.207 45 300.161 45H290.977V41.128H299.682C298.722 40.4667 297.922 39.8373 297.282 39.24C296.919 38.92 296.364 38.3227 295.618 37.448C295.383 37.1707 295.191 36.9467 295.042 36.776V34.952C295.98 33.5227 297.186 32.3813 298.658 31.528C300.151 30.6747 301.676 30.248 303.234 30.248C304.77 30.248 306.284 30.6853 307.778 31.56C309.271 32.4133 310.508 33.5653 311.49 35.016V36.776C310.06 38.504 308.46 39.9547 306.69 41.128ZM303.202 39.592C304.802 38.3333 305.986 37.064 306.754 35.784C305.474 34.5893 304.268 33.992 303.138 33.992C302.05 33.992 300.919 34.5893 299.746 35.784C300.578 37.256 301.73 38.5253 303.202 39.592ZM313.634 45V41.128H316.514C317.324 41.128 317.9 40.9573 318.242 40.616C318.583 40.2533 318.754 39.656 318.754 38.824V32.904L322.786 30.792V39.016C322.786 40.9573 322.188 42.472 320.994 43.56C319.948 44.52 318.583 45 316.898 45H313.634ZM320.418 52.136C319.778 52.136 319.266 51.944 318.882 51.56C318.498 51.176 318.306 50.6533 318.306 49.992C318.306 49.3733 318.498 48.872 318.882 48.488C319.266 48.104 319.778 47.912 320.418 47.912C321.058 47.912 321.559 48.0933 321.922 48.456C322.306 48.84 322.498 49.352 322.498 49.992C322.498 51.4213 321.804 52.136 320.418 52.136ZM334.424 45C332.483 45 330.979 44.3813 329.912 43.144C328.995 42.0773 328.536 40.7013 328.536 39.016V26.472L332.568 24.36V38.824C332.568 39.656 332.739 40.2533 333.08 40.616C333.422 40.9573 333.998 41.128 334.808 41.128H337.688V45H334.424ZM338.799 27.976C338.159 27.976 337.647 27.784 337.263 27.4C336.879 27.016 336.687 26.4933 336.687 25.832C336.687 25.2133 336.879 24.712 337.263 24.328C337.647 23.944 338.159 23.752 338.799 23.752C339.439 23.752 339.94 23.944 340.303 24.328C340.687 24.6907 340.879 25.192 340.879 25.832C340.879 27.2613 340.185 27.976 338.799 27.976ZM343.695 27.976C343.055 27.976 342.543 27.784 342.159 27.4C341.775 26.9947 341.583 26.472 341.583 25.832C341.583 25.2133 341.775 24.712 342.159 24.328C342.564 23.944 343.076 23.752 343.695 23.752C344.335 23.752 344.836 23.944 345.199 24.328C345.583 24.6907 345.775 25.192 345.775 25.832C345.775 27.2613 345.081 27.976 343.695 27.976ZM347.151 41.128H350.031V45H346.767C345.209 45 343.919 44.584 342.895 43.752C341.871 44.584 340.58 45 339.023 45H335.759V41.128H338.639C339.449 41.128 340.025 40.9573 340.367 40.616C340.708 40.2533 340.879 39.656 340.879 38.824V32.904L344.911 30.792V38.824C344.911 39.656 345.081 40.2533 345.423 40.616C345.764 40.9573 346.34 41.128 347.151 41.128ZM368.455 41.128H371.303V45H368.039C366.503 45 365.244 44.6053 364.263 43.816C363.111 45.032 361.596 45.64 359.719 45.64C357.799 45.64 356.284 45.032 355.175 43.816C354.151 44.6053 352.881 45 351.367 45H348.102V41.128H350.983C351.793 41.128 352.369 40.9573 352.711 40.616C353.052 40.2533 353.223 39.656 353.223 38.824V37.896C353.223 35.4 353.873 33.4587 355.175 32.072C356.305 30.856 357.82 30.248 359.719 30.248C361.873 30.248 363.537 31.0373 364.711 32.616C365.692 33.96 366.183 35.72 366.183 37.896V38.824C366.183 39.656 366.353 40.2533 366.694 40.616C367.057 40.9573 367.644 41.128 368.455 41.128ZM359.719 41.768C361.34 41.768 362.151 40.4453 362.151 37.8C362.151 35.2613 361.34 33.992 359.719 33.992C358.076 33.992 357.255 35.2613 357.255 37.8C357.255 40.4453 358.076 41.768 359.719 41.768ZM369.384 45V41.128H371.4C372.381 41.128 373.074 40.9147 373.48 40.488C373.906 40.0613 374.12 39.336 374.12 38.312V26.504L378.12 24.36V38.344C378.12 40.4133 377.49 42.0667 376.232 43.304C375.08 44.4347 373.544 45 371.624 45H369.384ZM383.88 45V26.504L387.912 24.36V45H383.88Z" fill="white"/>
</svg>
