<svg width="233" height="236" viewBox="0 0 233 236" fill="none" xmlns="http://www.w3.org/2000/svg">
<path d="M17.7552 110.759C17.7552 110.759 1.44027 138.645 15.3247 139.912C21.3822 140.486 21.3822 129.082 21.3822 129.082C21.3822 129.082 19.0479 135.737 14.5675 133.989C9.47644 132.039 17.7552 110.759 17.7552 110.759Z" fill="#F26530"/>
<path d="M151.997 68.1172C151.997 68.1172 135.682 96.0032 149.571 97.2708C155.624 97.8439 155.624 86.4402 155.624 86.4402C155.624 86.4402 153.285 93.0958 148.805 91.3514C143.722 89.3978 151.997 68.1172 151.997 68.1172Z" fill="#F26530"/>
<path d="M191.631 92.1889C191.631 92.1889 189.117 80.4881 184.319 77.9363C184.319 77.9363 183.151 80.1618 182.57 80.1618C181.997 80.1618 176.487 74.2591 179.391 71.2932C182.235 68.3021 188.322 74.3554 191.305 82.5212C191.305 82.5212 196.693 67.5951 199.789 67.4738C202.914 67.3734 204.984 74.0207 204.984 74.0207C204.984 74.0207 200.609 71.1718 199.333 72.5649C198.115 73.9328 192.89 85.4035 191.631 92.1889Z" fill="#F26530"/>
<path d="M71.7438 34.9445C71.7438 34.9445 69.2212 23.2354 64.4146 20.6878C64.4146 20.6878 63.2516 22.9133 62.6785 22.9133C62.1012 22.9133 56.5918 17.019 59.4992 14.0488C62.3355 11.0536 68.4348 17.111 71.4175 25.2685C71.4175 25.2685 76.7972 10.3508 79.8929 10.2336C83.022 10.1291 85.1011 16.7722 85.1011 16.7722C85.1011 16.7722 80.7379 13.9317 79.4453 15.3248C78.2196 16.6801 73.0071 28.1592 71.7438 34.9445Z" fill="#F26530"/>
<path d="M94.9277 119.928L98.0025 113.753C98.0025 113.753 107.114 121.028 99.1947 139.2C99.2031 139.2 103.738 121.948 94.9277 119.928Z" fill="#F26530"/>
<path d="M191.496 153.428L194.575 147.258C194.575 147.258 203.682 154.528 195.767 172.705C195.771 172.705 200.31 155.449 191.496 153.428Z" fill="#F26530"/>
<path d="M164.208 26.8575L167.279 20.6787C167.279 20.6787 176.394 27.9535 168.483 46.1343C168.483 46.1343 173.014 28.8738 164.208 26.8575Z" fill="#F26530"/>
<path d="M27.4971 55.6348L30.5676 49.4561C30.5676 49.4561 39.6831 56.7267 31.7724 74.9116C31.7724 74.9116 36.303 57.647 27.4971 55.6348Z" fill="#F26530"/>
<path d="M39.7754 132.658L42.8627 126.483C42.8627 126.483 51.974 133.758 44.0633 151.935C44.0591 151.935 48.5855 134.679 39.7754 132.658Z" fill="#F26530"/>
<path fill-rule="evenodd" clip-rule="evenodd" d="M125.513 218.4C139.556 210.665 148.27 203.427 151.7 196.814C153.436 194.546 155.026 192.844 156.457 191.743C158.988 195.09 161.343 195.17 163.635 192.007C164.125 191.639 164.493 190.865 164.719 189.727C159.975 190.396 157.519 189.305 157.44 186.422C157.327 179.248 158.988 175.897 162.426 176.131C164.418 176.089 166.463 176.24 168.614 176.876C161 179.566 158.465 181.783 161.096 183.511C162.849 184.121 165.171 184.121 168.237 183.41C170.668 180.779 173.178 177.771 175.821 174.312C175.821 176.207 175.821 178.051 175.83 179.967C172.399 183.933 169.76 187.732 167.902 191.317C164.849 196.897 162.573 199.336 161.18 198.725C158.791 198.663 156.67 198.437 154.75 197.897C145.902 210.686 136.26 217.463 125.513 218.4Z" fill="#F26530"/>
<path d="M165.945 154.186L172.208 162.544L181.683 153.073L175.429 144.719L165.945 154.186Z" fill="#F26530"/>
<path d="M77.5049 101.161L83.7673 109.523L93.2426 100.057L86.9885 91.6982L77.5049 101.161Z" fill="#F26530"/>
<path d="M90.4307 97.2801L96.6931 105.643L106.168 96.1715L99.9143 87.8174L90.4307 97.2801Z" fill="#F26530"/>
<path d="M44.0466 195.024C51.7774 189.527 69.9832 176.567 69.9832 176.567L71.6022 169.229C66.3019 172.806 39.445 182.122 39.4993 171.986C40.6958 163.837 56.9271 168.89 56.9271 168.89C56.9271 168.89 58.4498 162.569 58.6339 160.499C55.2412 159.549 47.5481 158.817 43.0175 161.687C39.1145 164.151 37.8135 170.016 37.9557 174.103C38.2987 183.411 43.6492 185.042 51.0286 183.829C48.4893 185.532 46.1425 186.536 46.1425 186.536L44.0466 195.024Z" fill="#F26530"/>
<path d="M172.822 51.9535C157.578 51.5854 92.427 33.3586 106.558 14.542C120.179 0.967121 144.744 31.8903 144.744 31.8903C144.744 31.8903 156.457 22.1138 159.678 18.5036C154.399 12.2579 140.447 0.682655 127.659 0.0258732C116.661 -0.551426 106.019 8.64353 100.631 16.4538C88.4027 34.2371 96.5685 44.3775 112.607 51.8824C103.245 51.8907 96.3259 51.8949 91.0549 51.8991C89.7372 51.8991 88.5533 51.1377 87.9718 49.9622C85.5078 44.9757 83.9893 40.282 86.5035 35.9397C83.7676 38.5836 80.0611 41.2149 76.4216 45.5948C70.2638 53.0077 74.8529 57.9984 78.8271 64.9636C80.7514 68.3312 86.7252 77.6684 84.7046 79.2623C80.0109 82.9519 66.7331 61.5459 63.2274 56.6054C58.0025 49.2636 51.5308 40.1314 55.1703 34.576C52.083 37.2407 49.4225 39.2571 45.7704 42.6163C40.0518 47.8873 42.7375 54.5723 46.6322 60.6423C46.6322 60.6423 58.86 76.4803 62.7171 82.6549C62.2025 86.8424 60.914 92.2055 55.8731 95.7278C47.3894 101.651 32.4423 100.225 25.0755 90.3062C22.1723 86.4074 18.5328 78.1997 21.5699 72.8032C18.8549 75.4805 15.1861 78.1579 11.601 82.5838C7.48879 87.6582 8.31291 91.5612 10.5175 95.6985C13.6718 100.003 19.0892 105.303 25.1675 107.203C35.7806 110.52 47.1635 109.771 57.216 101.651C62.6208 97.2966 65.8378 93.5734 69.1929 89.2018C72.368 91.168 75.7983 92.126 79.3918 91.1471C83.5668 90.0008 91.5444 82.2199 93.2428 79.417C95.6189 75.4973 95.9912 72.0795 95.439 67.5908C95.255 66.2019 94.9078 64.834 94.4601 63.4786C115.406 63.4786 144.589 63.4744 155.332 63.466C158.034 63.466 160.636 62.4955 162.682 60.7217L172.822 51.9535Z" fill="#F26530"/>
<path d="M67.1885 202.691C71.0162 206.85 81.897 212.326 94.447 213.564C97.8899 211.125 100.605 208.008 102.015 204.022C102.157 203.624 102.245 203.239 102.366 202.85C87.6282 207.26 72.4929 204.223 67.1885 202.691Z" fill="#F26530"/>
<path d="M229.067 113.862C223.808 106.922 212.493 98.5132 213.576 93.5434C211.438 94.5516 201.043 103.002 192.915 117.07C191.823 118.966 190.873 120.911 190.057 122.902L190.007 122.869C190.007 122.869 184.531 122.877 179.436 122.885C177.415 111.465 165.459 101.015 170.655 92.05C167.911 94.6939 164.209 97.3252 160.569 101.705C154.411 109.118 158.996 114.109 162.975 121.074C164.903 124.437 170.952 133.879 168.856 135.368C165.367 137.782 156.001 124.479 152.495 119.543C150.571 116.84 125.885 83.5997 124.191 80.6755C121.279 75.6597 119.543 70.7276 121.844 67.2178C118.757 69.8826 116.096 71.8989 112.444 75.2581C106.721 80.5291 109.407 87.2141 113.306 93.2841C113.306 93.2841 141.656 132.867 151.96 143.693C155.156 147.052 159.946 148.236 163.539 147.262C167.71 146.119 176.068 137.18 177.386 135.531C177.616 135.247 177.821 134.958 178.009 134.653C180.122 134.661 191.434 134.666 195.546 134.653C194.421 131.892 193.345 128.976 193.345 128.976C193.345 128.976 196.424 133.176 197.579 134.67C197.667 134.795 197.759 134.917 197.851 135.025C202.75 141.589 215.199 148.286 215.701 153.256C215.701 153.256 225.754 143.563 227.18 141.777C232.497 135.055 236.162 123.249 229.067 113.862ZM208.728 122.781C205.644 119.534 204.833 115.594 205.297 111.54C208.117 115.226 212.108 118.476 214.752 121.568C218.692 126.182 221.227 131.172 221.851 136.192C217.504 131.7 213.062 127.303 208.728 122.781Z" fill="#F26530"/>
<path d="M70.3105 117.005C65.508 111.679 62.3998 106.3 61.2829 101.363C60.4755 102.07 59.6346 102.79 58.7185 103.526C55.3342 106.258 51.7114 108.274 47.8795 109.596C48.0719 115.093 52.18 121.046 57.2041 126.204C62.5253 131.68 85.3746 157.052 90.8506 163.08C101.715 175.032 109.998 188.531 104.275 204.813C98.2635 221.864 71.6993 224.638 56.5306 224.541C36.4339 224.407 18.5795 211.573 12.3421 192.677C6.18428 174.044 19.6588 151.626 30.9872 141.318C29.2762 142.163 24.2186 146.012 18.8849 151.58C-4.88898 176.412 -9.55339 212.255 24.4529 230.231C48.2309 242.81 79.6267 233.121 98.4768 217.22C115.775 202.642 125.012 185.13 111.366 163.431C107.253 156.884 85.3872 133.7 70.3105 117.005Z" fill="#F26530"/>
<path d="M140.476 152.076C139.137 148.37 137.175 145.253 133.745 141.271C126.211 133.226 122.392 128.784 122.915 121.923C120.94 124.416 115.539 129.29 112.983 133.866C111.147 137.142 112.034 140.396 115.234 143.618C128.374 156.837 129.131 158.832 129.131 158.832C136.167 172.7 130.227 185.447 118.656 194.374C116.501 200.799 112.318 207.116 106.144 213.383C112.941 212.433 119.756 209.881 125.826 204.945C140.681 192.83 146.098 168.634 140.476 152.076Z" fill="#F26530"/>
</svg>
